<svg id="Layer_1" data-name="Layer 1" xmlns="http://www.w3.org/2000/svg" xmlns:xlink="http://www.w3.org/1999/xlink" viewBox="0 0 458.9 185.9"><defs><style>.cls-1{fill:#231f20;}.cls-2{fill:url(#linear-gradient);}.cls-3{fill:url(#linear-gradient-2);}.cls-4{fill:url(#linear-gradient-3);}.cls-5{fill:url(#linear-gradient-4);}.cls-6{fill:url(#linear-gradient-5);}.cls-7{fill:url(#linear-gradient-6);}.cls-8{fill:url(#linear-gradient-7);}.cls-9{fill:url(#linear-gradient-8);}.cls-10{fill:url(#linear-gradient-9);}.cls-11{fill:url(#linear-gradient-10);}.cls-12{fill:url(#linear-gradient-11);}.cls-13{fill:url(#linear-gradient-12);}.cls-14{fill:url(#linear-gradient-13);}.cls-15{fill:url(#linear-gradient-14);}.cls-16{fill:url(#linear-gradient-15);}.cls-17{fill:url(#linear-gradient-16);}.cls-18{fill:url(#linear-gradient-17);}.cls-19{fill:url(#linear-gradient-18);}</style><linearGradient id="linear-gradient" x1="90" y1="963.81" x2="126.64" y2="963.81" gradientTransform="translate(0 -880.11)" gradientUnits="userSpaceOnUse"><stop offset="0" stop-color="#8fc73e"/><stop offset="0.17" stop-color="#7dba3e"/><stop offset="0.52" stop-color="#4d983d"/><stop offset="1" stop-color="#00613c"/></linearGradient><linearGradient id="linear-gradient-2" x1="61.2" y1="1051.21" x2="103.77" y2="1051.21" xlink:href="#linear-gradient"/><linearGradient id="linear-gradient-3" x1="22.87" y1="1005.06" x2="75.49" y2="1005.06" xlink:href="#linear-gradient"/><linearGradient id="linear-gradient-4" x1="82.26" y1="915.21" x2="125.29" y2="915.21" xlink:href="#linear-gradient"/><linearGradient id="linear-gradient-5" x1="62.13" y1="1010.91" x2="80.2" y2="1010.91" xlink:href="#linear-gradient"/><linearGradient id="linear-gradient-6" x1="120.56" y1="888.51" x2="126.38" y2="888.51" xlink:href="#linear-gradient"/><linearGradient id="linear-gradient-7" x1="10.31" y1="1021.26" x2="20.81" y2="1021.26" xlink:href="#linear-gradient"/><linearGradient id="linear-gradient-8" x1="18.47" y1="1048.41" x2="54.55" y2="1048.41" xlink:href="#linear-gradient"/><linearGradient id="linear-gradient-9" x1="59.5" y1="957.96" x2="96.9" y2="957.96" xlink:href="#linear-gradient"/><linearGradient id="linear-gradient-10" x1="87.08" y1="1023.67" x2="124.97" y2="1023.67" xlink:href="#linear-gradient"/><linearGradient id="linear-gradient-11" x1="81.12" y1="1038.46" x2="92.71" y2="1038.46" xlink:href="#linear-gradient"/><linearGradient id="linear-gradient-12" x1="90.29" y1="1000.46" x2="101.88" y2="1000.46" xlink:href="#linear-gradient"/><linearGradient id="linear-gradient-13" x1="115.31" y1="977.46" x2="125.81" y2="977.46" xlink:href="#linear-gradient"/><linearGradient id="linear-gradient-14" x1="11.72" y1="981.01" x2="56.42" y2="981.01" xlink:href="#linear-gradient"/><linearGradient id="linear-gradient-15" x1="41.49" y1="947.96" x2="53.08" y2="947.96" xlink:href="#linear-gradient"/><linearGradient id="linear-gradient-16" x1="67.17" y1="1067.31" x2="75.15" y2="1067.31" xlink:href="#linear-gradient"/><linearGradient id="linear-gradient-17" x1="118.08" y1="928.51" x2="126.06" y2="928.51" xlink:href="#linear-gradient"/><linearGradient id="linear-gradient-18" x1="80.36" y1="938.81" x2="88.34" y2="938.81" gradientTransform="translate(-10.3 -885.51)" xlink:href="#linear-gradient"/></defs><title>liquid studio logo</title><path class="cls-1" d="M146.4,6.5H156V50.7h22.1v7.6H146.3V6.5Z" transform="translate(-10.3 -5.4)"/><path class="cls-1" d="M192.2,6.5h9.7V58.3h-9.7Z" transform="translate(-10.3 -5.4)"/><path class="cls-1" d="M253.4,57.3a33.63,33.63,0,0,1-4.8,1.3,30.72,30.72,0,0,1-5.3.5,28.37,28.37,0,0,1-10.8-2,24.09,24.09,0,0,1-8.3-5.5,25.47,25.47,0,0,1-5.3-8.4A28.2,28.2,0,0,1,217,32.8v-.6a29.11,29.11,0,0,1,1.9-10.5,25.31,25.31,0,0,1,5.4-8.3,25.59,25.59,0,0,1,8.3-5.5,27.72,27.72,0,0,1,10.6-2,29.75,29.75,0,0,1,10.6,2,25.31,25.31,0,0,1,8.3,5.4,27,27,0,0,1,5.4,8.3A26.63,26.63,0,0,1,269.4,32v.6A26.42,26.42,0,0,1,267,44.3a25.26,25.26,0,0,1-6.6,8.9l5.7,6.2-5.8,5.7Zm-9.9-5.8a19,19,0,0,0,4.1-.4l-5.1-5.5,5.9-5.5,6.4,6.9a18.35,18.35,0,0,0,3.6-6.2,22.67,22.67,0,0,0,1.2-8.2V32a23.3,23.3,0,0,0-1.1-7.4,19.64,19.64,0,0,0-3.1-5.9,12.68,12.68,0,0,0-5.1-3.8,17.23,17.23,0,0,0-6.8-1.4,18,18,0,0,0-6.9,1.3,14.83,14.83,0,0,0-5.1,3.8,16.12,16.12,0,0,0-3.2,5.9,24.54,24.54,0,0,0-1.1,7.6v.6a25.44,25.44,0,0,0,1.2,7.8,16.57,16.57,0,0,0,3.4,5.9,13.77,13.77,0,0,0,5.2,3.7,15.8,15.8,0,0,0,6.5,1.4Z" transform="translate(-10.3 -5.4)"/><path class="cls-1" d="M304.2,59.1c-6.5,0-11.5-1.7-15.1-5.2s-5.3-8.5-5.3-15.3V6.5h9.7V37.9c0,4.8.8,8.2,2.5,10.3s4.4,3.1,8.3,3.1a16.14,16.14,0,0,0,4.9-.7,7,7,0,0,0,3.5-2.3,11.51,11.51,0,0,0,2.1-4.3,30.51,30.51,0,0,0,.7-6.7V6.5h9.7V38c0,6.8-1.8,12-5.3,15.6S311.2,59.1,304.2,59.1Z" transform="translate(-10.3 -5.4)"/><path class="cls-1" d="M342.6,6.5h9.7V58.3h-9.7Z" transform="translate(-10.3 -5.4)"/><path class="cls-1" d="M370.1,6.5h15.7a33.85,33.85,0,0,1,11.8,1.8,23.69,23.69,0,0,1,8.4,5.2,21.62,21.62,0,0,1,5,8,30.09,30.09,0,0,1,1.7,10.3v.6A31.23,31.23,0,0,1,411,42.9a21.13,21.13,0,0,1-5,8.2,21.83,21.83,0,0,1-8.4,5.3,32,32,0,0,1-11.9,1.9H370.1Zm15.3,44.2c5.8,0,10.2-1.6,13-4.7s4.2-7.6,4.2-13.4V32a27.12,27.12,0,0,0-1-7.5,13.46,13.46,0,0,0-3.1-5.6,13,13,0,0,0-5.4-3.5,20.87,20.87,0,0,0-7.8-1.2h-5.6V50.8Z" transform="translate(-10.3 -5.4)"/><path class="cls-1" d="M164,131a28.24,28.24,0,0,1-9.1-1.3,17,17,0,0,1-6.3-3.5,14.05,14.05,0,0,1-3.8-5.3,22.5,22.5,0,0,1-1.6-6.8h9.3a15.25,15.25,0,0,0,.8,3.7,9.53,9.53,0,0,0,1.9,3,10.78,10.78,0,0,0,3.4,2.1,16.45,16.45,0,0,0,5.4.8,11.49,11.49,0,0,0,7.1-2.2,6.88,6.88,0,0,0,2.7-5.8,8.4,8.4,0,0,0-.5-3.1,6.2,6.2,0,0,0-1.7-2.2,12.62,12.62,0,0,0-3.3-1.6,48.75,48.75,0,0,0-5.2-1.2,58.4,58.4,0,0,1-8.1-1.7,16.86,16.86,0,0,1-5.7-2.8,12.15,12.15,0,0,1-3.4-4.4,14.79,14.79,0,0,1-1.1-6.2,13.37,13.37,0,0,1,1.3-5.9,14,14,0,0,1,3.7-4.7,17.56,17.56,0,0,1,5.7-3.1,20.79,20.79,0,0,1,7.4-1.1c5.6,0,10,1.3,13.2,3.8s5.1,6.3,5.6,11.2h-8.9c-.5-2.7-1.5-4.7-3.1-5.9s-3.9-1.8-6.9-1.8-5.2.6-6.7,1.9a5.83,5.83,0,0,0-2.2,4.9,9,9,0,0,0,.4,2.8,4.74,4.74,0,0,0,1.6,2.1,12.62,12.62,0,0,0,3.3,1.6,48.78,48.78,0,0,0,5.5,1.2,54.19,54.19,0,0,1,8,1.7,17.34,17.34,0,0,1,5.8,2.8,12.43,12.43,0,0,1,3.5,4.4,18.38,18.38,0,0,1,1.2,6.6,15.23,15.23,0,0,1-1.4,6.3,14.8,14.8,0,0,1-3.9,5.1,17.92,17.92,0,0,1-6,3.4A26.56,26.56,0,0,1,164,131Z" transform="translate(-10.3 -5.4)"/><path class="cls-1" d="M202,86.4H187.6V78.8h38.6v7.6H211.8v44.2H202Z" transform="translate(-10.3 -5.4)"/><path class="cls-1" d="M254.5,131c-6.5,0-11.6-1.7-15.1-5.2s-5.3-8.5-5.3-15.3V78.4h9.7v31.4c0,4.8.8,8.2,2.5,10.3s4.4,3.1,8.3,3.1a16.14,16.14,0,0,0,4.9-.7,7,7,0,0,0,3.5-2.3,10.18,10.18,0,0,0,2.1-4.3,30.78,30.78,0,0,0,.7-6.8V78.4h9.7v31.5c0,6.8-1.8,12-5.3,15.6S261.4,131,254.5,131Z" transform="translate(-10.3 -5.4)"/><path class="cls-1" d="M287.6,78.8h15.7a33.85,33.85,0,0,1,11.8,1.8,23.69,23.69,0,0,1,8.4,5.2,21.62,21.62,0,0,1,5,8,32.71,32.71,0,0,1,1.7,10.3v.7a30.66,30.66,0,0,1-1.7,10.4,21.41,21.41,0,0,1-13.4,13.5,32,32,0,0,1-11.9,1.9H287.6ZM302.9,123c5.8,0,10.2-1.6,13-4.8s4.2-7.6,4.2-13.4v-.6a27.12,27.12,0,0,0-1-7.5,13.46,13.46,0,0,0-3.1-5.6,14.25,14.25,0,0,0-5.4-3.6,20.87,20.87,0,0,0-7.8-1.2h-5.6V123Z" transform="translate(-10.3 -5.4)"/><path class="cls-1" d="M340.3,78.8h9.8v51.8h-9.7Z" transform="translate(-10.3 -5.4)"/><path class="cls-1" d="M386.5,131a28.37,28.37,0,0,1-10.8-2,23,23,0,0,1-8.3-5.6,25.47,25.47,0,0,1-5.3-8.4,28.2,28.2,0,0,1-1.9-10.4V104a28.73,28.73,0,0,1,1.9-10.5,24.24,24.24,0,0,1,13.7-13.9,27.72,27.72,0,0,1,10.6-2,29.75,29.75,0,0,1,10.6,2,24.12,24.12,0,0,1,13.6,13.7,26.79,26.79,0,0,1,1.9,10.5v.6a29.11,29.11,0,0,1-1.9,10.5A25.37,25.37,0,0,1,386.5,131Zm.1-7.8a16.54,16.54,0,0,0,6.6-1.3,15.45,15.45,0,0,0,5-3.8,19.94,19.94,0,0,0,3.2-5.9,22.45,22.45,0,0,0,1.1-7.7v-.6a23.3,23.3,0,0,0-1.1-7.4,19.64,19.64,0,0,0-3.1-5.9,13.93,13.93,0,0,0-5.1-3.9,15.64,15.64,0,0,0-6.8-1.4,17.51,17.51,0,0,0-6.8,1.3,14.83,14.83,0,0,0-5.1,3.8,17.75,17.75,0,0,0-3.2,5.9,24.54,24.54,0,0,0-1.1,7.6v.6a25.27,25.27,0,0,0,1.2,7.7,18.21,18.21,0,0,0,3.4,5.9,15.84,15.84,0,0,0,5.1,3.8,18.11,18.11,0,0,0,6.7,1.3Z" transform="translate(-10.3 -5.4)"/><path class="cls-1" d="M146.2,150.5h6.2a10.9,10.9,0,0,1,2.6.3,7.84,7.84,0,0,1,2.1.9,4.28,4.28,0,0,1,1.4,1.6,5.59,5.59,0,0,1,.5,2.5v.1a4.84,4.84,0,0,1-.7,2.6,4.3,4.3,0,0,1-2.4,1.8,5.91,5.91,0,0,1,3.2,1.7,4.49,4.49,0,0,1,.9,3.2v.1a5.34,5.34,0,0,1-.5,2.5,4.89,4.89,0,0,1-1.4,1.8,8.42,8.42,0,0,1-2.1,1.1,8.63,8.63,0,0,1-2.8.4h-7Zm6.1,8.9a4.62,4.62,0,0,0,3.2-.9,3.39,3.39,0,0,0,1-2.7v-.1a3,3,0,0,0-1-2.5,6.09,6.09,0,0,0-3.2-.8h-3.8v6.9Zm.8,9.6a4.74,4.74,0,0,0,3.3-.9,3.69,3.69,0,0,0,1.1-2.8v-.1a3.25,3.25,0,0,0-1.1-2.8,5.72,5.72,0,0,0-3.6-.9h-4.2v7.6Z" transform="translate(-10.3 -5.4)"/><path class="cls-1" d="M164.4,150.5h12v2h-9.5v7h7.6v2h-7.6V169h10v2H164.4Z" transform="translate(-10.3 -5.4)"/><path class="cls-1" d="M188.5,150.5H194a12.06,12.06,0,0,1,4.6.8,9.88,9.88,0,0,1,3.2,2.1,8,8,0,0,1,1.9,3.2,13.36,13.36,0,0,1,.6,4v.3a13.36,13.36,0,0,1-.6,4,8,8,0,0,1-1.9,3.2,8.34,8.34,0,0,1-3.3,2.2,12.57,12.57,0,0,1-4.7.8h-5.4Zm5.3,18.5a10.3,10.3,0,0,0,3.5-.6,8.21,8.21,0,0,0,2.5-1.6,6.14,6.14,0,0,0,1.5-2.6,10,10,0,0,0,.5-3.4v-.2a12.42,12.42,0,0,0-.4-3.3,9.39,9.39,0,0,0-1.4-2.6,7.39,7.39,0,0,0-2.5-1.7,11.33,11.33,0,0,0-3.6-.6H191V169Z" transform="translate(-10.3 -5.4)"/><path class="cls-1" d="M209,150.5h2.5V171H209Z" transform="translate(-10.3 -5.4)"/><path class="cls-1" d="M217.1,150.5h12v2h-9.5v7.3H227v2h-7.4V171h-2.5Z" transform="translate(-10.3 -5.4)"/><path class="cls-1" d="M233.2,150.5h12v2h-9.5v7.3h7.4v2h-7.4V171h-2.5Z" transform="translate(-10.3 -5.4)"/><path class="cls-1" d="M249.2,150.5h12v2h-9.5v7h7.6v2h-7.6V169h10v2H249.2V150.5Z" transform="translate(-10.3 -5.4)"/><path class="cls-1" d="M265.8,150.5H272a13.33,13.33,0,0,1,2.8.3,6.71,6.71,0,0,1,2.3,1,5.17,5.17,0,0,1,1.5,1.8,5.83,5.83,0,0,1,.6,2.6v.1a5.38,5.38,0,0,1-.4,2.2,4.57,4.57,0,0,1-1.1,1.6,5.72,5.72,0,0,1-1.6,1.1,6.64,6.64,0,0,1-2,.6l6.3,9.1h-2.8l-6.1-8.9h-3.2v8.9h-2.5Zm6.3,9.6a5.24,5.24,0,0,0,3.4-1,3.36,3.36,0,0,0,1.1-2.8v-.1a5.66,5.66,0,0,0-.3-1.8,2,2,0,0,0-.9-1.1,3.51,3.51,0,0,0-1.4-.6,11.08,11.08,0,0,0-1.9-.2h-3.9v7.6Z" transform="translate(-10.3 -5.4)"/><path class="cls-1" d="M284.1,150.5h12v2h-9.5v7h7.6v2h-7.6V169h10v2H284.1Z" transform="translate(-10.3 -5.4)"/><path class="cls-1" d="M300.7,150.5H304l10,17v-17h2.4V171h-2.9l-10.4-17.6V171h-2.4Z" transform="translate(-10.3 -5.4)"/><path class="cls-1" d="M326,152.5h-6v-2h14.4v2h-6V171H326Z" transform="translate(-10.3 -5.4)"/><path class="cls-1" d="M420.7,131a2.82,2.82,0,0,1-2.9-2.8v-.1a2.52,2.52,0,0,1,.9-2,2.46,2.46,0,0,1,2.1-.8,3,3,0,0,1,2.1.8,2.74,2.74,0,0,1,.6,3.2,2.84,2.84,0,0,1-.6.9,2.07,2.07,0,0,1-1,.6A2.54,2.54,0,0,1,420.7,131Z" transform="translate(-10.3 -5.4)"/><path class="cls-1" d="M428.5,106.9h6.2l9,15.7V106.9h4.8v23.8h-5.3l-9.9-16.9v16.9h-4.8Z" transform="translate(-10.3 -5.4)"/><path class="cls-1" d="M454.1,106.9h5.4v19.6h9.7v4.2h-15Z" transform="translate(-10.3 -5.4)"/><path class="cls-2" d="M126.6,71.7a18.3,18.3,0,1,0-36.6,0,18.85,18.85,0,0,0,2.9,10.1h0a16.44,16.44,0,0,0,2.6,3.3c4.4,5.7,12.8,17.5,12.8,24.1a4.93,4.93,0,0,0,5.1,4.8,5,5,0,0,0-.1-9.9s-9.6-7.8,0-14.4h0A18.45,18.45,0,0,0,126.6,71.7Z" transform="translate(-10.3 -5.4)"/><path class="cls-3" d="M98,170.1a5.36,5.36,0,0,0-4.3,2h0c-7.4,5.9-11.4-1.1-12.9-4.8-.2-.6-.4-1.2-.6-1.7a.77.77,0,0,1-.1-.3v.1a9.66,9.66,0,0,0-8.8-5.3,10.2,10.2,0,0,0,0,20.4,9.16,9.16,0,0,0,4.3-1.1h0c9.2-4.6,17.3.4,19.1,1.6l.3.2h.1a5.29,5.29,0,0,0,3,.9,6.06,6.06,0,0,0,5.3-6.7,6.36,6.36,0,0,0-5.4-5.3Z" transform="translate(-10.3 -5.4)"/><path class="cls-4" d="M66.7,150a9.18,9.18,0,0,0-6.8-8.8h0a6.8,6.8,0,0,0-2-.2c-.4,0-.9.1-1.3.1-5.8-.4-16.8-1.8-11.3-8a13.61,13.61,0,0,0,3.8-10.5h0C52,108.3,64.4,108.8,66.4,109h.3a9,9,0,1,0-8.8-9.2v.2c-3.3,16.7-14.4,12.2-15.8,11.5a13,13,0,0,0-15.4,2.4,13.71,13.71,0,0,0,0,19,13.1,13.1,0,0,0,8.7,4c2.6,1.7,12.1,8.3,14.1,15.5h0A8.75,8.75,0,0,0,66.7,150Z" transform="translate(-10.3 -5.4)"/><path class="cls-5" d="M89.2,51a6.82,6.82,0,0,0,5.4-2.7h0a19.09,19.09,0,0,1,16.9-7.6,10.59,10.59,0,0,0,3.1.5,11,11,0,1,0-10.3-14.3h0v.2a11.15,11.15,0,0,0-.5,3.1v.4c-1.6,7.6-6.9,8.2-10.6,7.5a7.32,7.32,0,0,0-4-1.3,7,7,0,0,0-6.8,7.3A7.1,7.1,0,0,0,89.2,51Z" transform="translate(-10.3 -5.4)"/><path class="cls-6" d="M64.5,124.5a9.4,9.4,0,0,0,.6,13.1,9,9,0,0,0,12.6-.3l.2-.2a9.4,9.4,0,0,0-.6-13.1,9,9,0,0,0-12.6.3C64.6,124.3,64.6,124.4,64.5,124.5Z" transform="translate(-10.3 -5.4)"/><path class="cls-7" d="M123.5,11.4a3.08,3.08,0,0,0,3.1-2.9,3,3,0,1,0-6-.2v.1a2.81,2.81,0,0,0,2.9,3Z" transform="translate(-10.3 -5.4)"/><path class="cls-8" d="M20.8,141a5.25,5.25,0,1,0-5.2,5.4A5.4,5.4,0,0,0,20.8,141Z" transform="translate(-10.3 -5.4)"/><path class="cls-9" d="M48.8,175.3c-12.6-1-12.5-12.8-12.3-16,0-.3.1-.5.1-.8a9,9,0,1,0-9,9.2A8,8,0,0,0,31,167h0c9.8.5,12,14.2,12,14.2a5.8,5.8,0,1,0,5.8-5.9Z" transform="translate(-10.3 -5.4)"/><path class="cls-10" d="M71.2,85.9c12,.7,15.8,18.3,15.8,18.3a5,5,0,1,0,10-.2,5,5,0,0,0-5-4.9C82.6,95.5,82,82.9,82.2,78A12,12,0,0,0,75,62.7a1.88,1.88,0,0,0-.8-.2c-3.1-2.1-6-5.5-3-9.9a3,3,0,1,0-2.9-3.1V50c.1,1.7.5,9.5-4.7,15h0a12.35,12.35,0,0,0-4.1,9.2A11.78,11.78,0,0,0,71.2,85.9Z" transform="translate(-10.3 -5.4)"/><path class="cls-11" d="M123.8,126.9a8.9,8.9,0,0,0-12.1-3.5c-.1,0-.1.1-.2.1a9.36,9.36,0,0,0-3.3,12.6,9.56,9.56,0,0,0,2.3,2.6h0c4.7,5.2-.1,7.3-1.6,7.8h0l-.4.1h0c-5,2.1-8.4-5.3-9.8-8.9a4.92,4.92,0,0,0-.6-1.7v-.1h0a5.71,5.71,0,0,0-5.1-3.1,6,6,0,0,0,0,11.9,5.28,5.28,0,0,0,3.2-1h0c6.4,0,6,14.2,6,14.2h0a8.44,8.44,0,0,0,2.7,4.5,8.88,8.88,0,0,0,12.6-.4l.2-.2a8.93,8.93,0,0,0,2.3-6.3h0v-.1a8.15,8.15,0,0,0-.6-3.1,21.7,21.7,0,0,1,2.6-13.9,8.26,8.26,0,0,0,2.1-2.8h0A9.54,9.54,0,0,0,123.8,126.9Z" transform="translate(-10.3 -5.4)"/><path class="cls-12" d="M83.5,163.2a5.75,5.75,0,0,0,8-1.2c0-.1.1-.1.1-.2a6,6,0,0,0-1.3-8.3,5.75,5.75,0,0,0-8,1.2c0,.1-.1.1-.1.2A6.18,6.18,0,0,0,83.5,163.2Z" transform="translate(-10.3 -5.4)"/><path class="cls-13" d="M91.4,116.9a6,6,0,0,0,1.3,8.3,5.75,5.75,0,0,0,8-1.2c0-.1.1-.1.1-.2a6,6,0,0,0-1.3-8.3,5.75,5.75,0,0,0-8,1.2A.35.35,0,0,1,91.4,116.9Z" transform="translate(-10.3 -5.4)"/><path class="cls-14" d="M120.6,92a5.35,5.35,0,1,0,5.2,5.5v-.1a5.27,5.27,0,0,0-5.2-5.4Z" transform="translate(-10.3 -5.4)"/><path class="cls-15" d="M47.7,84.5a8.86,8.86,0,0,0-8.6,7.1h0c-2.4,3.3-6.4,0-8.5-2.1a5.63,5.63,0,0,0-7.8-2.2,4.69,4.69,0,0,0-1.9,1.8,6.19,6.19,0,0,0,0,6.9c.3,1.2,1,5.6-5.2,13.1a4.1,4.1,0,0,0-.2,8.2,4.05,4.05,0,0,0,4.2-4v-.1a4.3,4.3,0,0,0-1.1-2.8,12.64,12.64,0,0,1,7-11.9h0A5.49,5.49,0,0,0,30.3,96c3.2-2.9,7.1-.5,9.7,1.9a8.93,8.93,0,0,0,2.9,3.2h0a8.63,8.63,0,0,0,4.7,1.4,9.08,9.08,0,0,0,8.1-9.9,9,9,0,0,0-8-8.1Z" transform="translate(-10.3 -5.4)"/><path class="cls-16" d="M43.9,72.7a5.66,5.66,0,0,0,8-1.3l.1-.1A6,6,0,0,0,50.7,63a5.75,5.75,0,0,0-8,1.2c0,.1-.1.1-.1.2A6,6,0,0,0,43.9,72.7Z" transform="translate(-10.3 -5.4)"/><path class="cls-17" d="M71.2,183.1a4.1,4.1,0,1,0,4,4.2v-.1a4.17,4.17,0,0,0-4-4.1Z" transform="translate(-10.3 -5.4)"/><path class="cls-18" d="M126.1,48.3a4,4,0,1,0-4,4.1,4,4,0,0,0,4-4.1Z" transform="translate(-10.3 -5.4)"/><ellipse class="cls-19" cx="74" cy="53.3" rx="4" ry="4.1"/></svg>